<svg viewBox="0 0 240 240" xmlns="http://www.w3.org/2000/svg" xmlns:xlink="http://www.w3.org/1999/xlink">

  <!-- <rect x="0" y="0"r width="100%" height="100%" fill="#fff" /> -->

  <!-- letter W -->
  <polygon points="115,50 85,50 115,150 140,150 160,80 180,150 205,150 235,50 205,50 190,120 175,50 145,50 130,120" fill="#4ae" transform="translate(-75,-40)" />

  <!-- letter T -->
  <polygon points="40,180 140,180 140,205 105,205 105,290 75,290 75,205 40,205" fill="#6c3" transform="translate(-10,-60)" />

  <!-- letter C -->
  <path d="M 270,100 A 20,20 0,0,0 270,260 L 270,235 A 20,20 0,0,1 270,125 Z" fill="#f93" transform="translate(-45,-55)" />

</svg>
